<?xml version="1.0" encoding="UTF-8"?>
<svg id="Capa_2" data-name="Capa 2" xmlns="http://www.w3.org/2000/svg" width="339.76" height="60.21" viewBox="0 0 339.76 60.21">
  <g id="Capa_1-2" data-name="Capa 1">
    <g>
      <path d="M18.9,18.61V2.56l12-1.87v51l-12,.15v-3.07c-1.8,1.64-4.05,2.92-6.68,2.92-9.3,0-12.22-7.88-12.22-16.88,0-11.85,4.2-18.38,13.35-18.38,1.5,0,2.41.3,3.08.75l2.47,1.42ZM18.9,38.63v-9.07l-2.93-.83c-1.95,0-3.3.9-3.3,5.18s1.13,5.25,3,5.25c1.43,0,2.33-.15,3.23-.53Z" fill="#fff"/>
      <path d="M45.15,38.26c.6,2.25,2.02,3.3,4.65,3.3,3.22,0,6.3-.38,9.67-1.58l2.92,7.72c-3.82,2.25-7.12,3.98-14.25,3.98-7.8,0-14.62-4.58-14.62-17.78s7.8-17.48,14.85-17.48c9.15,0,13.57,5.7,13.57,15.67,0,4.28-1.8,6.15-4.95,6.15h-11.85ZM44.85,31.44l6.83-.31c0-3-1.35-3.97-3.23-3.97s-3.15,1.65-3.6,4.28Z" fill="#fff"/>
      <path d="M77.02,18.61l3.16-1.5c1.49-.67,3.07-.67,5.39-.67,7.05,0,10.05,4.5,10.05,13.57v21.68h-12.67v-17.63c0-4.5-.9-5.77-3.38-5.77l-2.55.37v23.03h-12.07V16.96l12.07-1.43v3.08Z" fill="#fff"/>
      <path d="M97.27,16.44h4.28v-6.83l12.07-1.88v8.7h6.3v12.15h-6.3v5.1c0,4.43,1.35,5.85,3.97,5.85h2.7v12.16h-6.22c-8.7,0-12.53-5.4-12.53-15.6v-7.5h-4.28v-12.15Z" fill="#fff"/>
      <path d="M140.47,49.43c-2.32,1.27-4.88,2.25-7.13,2.25-7.58,0-11.4-3.83-11.4-11.93s4.58-10.5,11.18-10.5c.97,0,2.32.08,3.23.22l4.12.6v-.97c0-2.62-2.32-3.07-5.25-3.07-3.07,0-5.55.52-7.05,1.13l-3.22-7.65c2.48-1.58,6.6-3.15,13.05-3.15,9.82,0,14.47,5.1,14.47,14.85v20.48l-12,.07v-2.33ZM140.47,41.26v-3.52l-3.9-.07c-2.48,0-3.3.53-3.3,1.72,0,1.43.82,2.41,2.92,2.41,1.5,0,2.85-.15,4.28-.53Z" fill="#fff"/>
      <path d="M155.91,51.69V2.56l12.15-1.87v51h-12.15Z" fill="#fff"/>
      <polygon points="172.49 51.69 172.49 16.89 184.56 15.53 184.56 51.69 172.49 51.69" fill="#fff"/>
      <path d="M187.71,48.76l3.22-9.46c1.5.61,6.6,1.73,9.82,1.73,2.63,0,3.53-.37,3.53-1.04,0-.83-1.2-1.2-5.78-1.8-6.3-.91-9.82-3.67-9.82-10.5,0-8.1,5.55-11.62,12.38-11.62,5.4,0,8.47,1.2,12.07,3l-3,9.83c-2.71-.9-5.63-1.43-9.01-1.43-2.1,0-2.7.38-2.7.9,0,.68.9,1.05,6,1.8,6.52.97,10.43,2.85,10.43,10.05,0,7.95-4.28,11.78-13.65,11.78-6.67,0-11.47-1.95-13.5-3.22Z" fill="#fff"/>
      <path d="M223.79.01c4.2,0,6.82,2.78,6.82,6.75,0,3.45-2.62,6.68-6.82,6.68-3.3,0-6.53-3.22-6.53-6.68,0-3.97,3.23-6.75,6.53-6.75Z" fill="#fff"/>
      <polygon points="217.49 51.69 217.49 16.89 229.56 15.53 229.56 51.69 217.49 51.69" fill="#fff"/>
      <path d="M246.36,28.66v23.03h-12.07V16.89l12.07-1.35v3.3l2.63-1.5c1.2-.67,2.55-.9,4.5-.9,2.99,0,5.78.82,7.8,3.22l5.02-2.47c.9-.45,2.17-.75,3.67-.75,8.25,0,12.23,2.7,12.23,16.8v18.45h-12.15v-18.08c0-4.57-.82-5.4-3-5.4l-2.85.3c.07.97.15,2.02.15,3.08v20.1h-12.23v-19.28c0-3.22-.97-4.2-3.22-4.2l-2.55.45Z" fill="#fff"/>
      <path d="M313.04,6.78c-14.75,0-26.71,11.95-26.71,26.71s11.96,26.72,26.71,26.72,26.72-11.96,26.72-26.72-11.96-26.71-26.72-26.71ZM320.83,33.67c-2.1,2.31-.63,5.02-1.26,8.16-.65,3.26-3.71,9.31-4.5-.1-.34-4.05-1.43-5.23-2.39-5.21-.96-.02-2.05,1.16-2.39,5.21-.78,9.42-3.84,3.36-4.5.1-.63-3.14.84-5.85-1.26-8.16-2.09-2.3-1.88-5.65-1.88-5.65,0-7.12,7.72-6.48,8.99-5.12.46.48.73.68,1.03.7.3-.03.57-.22,1.03-.7,1.28-1.35,9-2,9,5.12,0,0,.21,3.35-1.88,5.65Z" fill="#fff"/>
      <polygon points="172.49 7.84 172.49 13.22 184.56 11.87 184.56 0 172.49 7.84" fill="#fff"/>
    </g>
  </g>
</svg>